<svg width="1512" height="2191" viewBox="0 0 1512 2191" fill="none" xmlns="http://www.w3.org/2000/svg">
<path d="M1368.31 471.372C1264.05 470.704 1179.98 371.448 1180.55 249.679L1369.34 250.887L1368.31 471.372Z" fill="#FFC700" fill-opacity="0.15"/>
<path d="M1369.86 140.45L1275.47 139.846C1223.33 139.512 1180.84 188.599 1180.55 249.484L1274.95 250.088C1327.08 250.422 1369.58 201.335 1369.86 140.45Z" fill="#FFC700" fill-opacity="0.15"/>
<path d="M1369.86 140.45L1275.47 139.846C1223.33 139.512 1181.3 89.8851 1181.58 28.9999L1275.98 29.6039C1328.12 29.9374 1370.15 79.5648 1369.86 140.45Z" fill="#FF743C" fill-opacity="0.15"/>
<path d="M1367.8 581.808C1368.08 520.924 1326.05 471.296 1273.91 470.962C1221.78 470.629 1179.29 519.716 1179 580.601C1178.72 641.485 1220.75 691.113 1272.88 691.447L1367.28 692.051L1367.8 581.808Z" fill="#FF743C" fill-opacity="0.15"/>
<path d="M1321.82 748.977C1321.97 717.486 1300.23 691.816 1273.26 691.644C1246.29 691.471 1224.31 716.861 1224.17 748.352C1224.02 779.846 1245.76 805.515 1272.73 805.688L1321.55 806L1321.82 748.977Z" fill="#FFC700" fill-opacity="0.15"/>
<path d="M1322.4 250.392C1322.97 128.623 1407.96 30.4481 1512.22 31.1152L1511.19 251.6L1322.4 250.392Z" fill="#FF743C" fill-opacity="0.15"/>
<path d="M1321.36 471.071C1321.93 349.3 1406.92 251.127 1511.19 251.794L1510.16 472.279L1321.36 471.071Z" fill="#6ED47C" fill-opacity="0.15"/>
<path d="M1366.18 690.552C1366.47 628.406 1409.84 578.304 1463.06 578.645L1462.53 691.168L1366.18 690.552Z" fill="#D5E155" fill-opacity="0.15"/>
<path d="M1515.97 372.547C1411.7 371.88 1327.64 272.624 1328.21 150.854L1517 152.062L1515.97 372.547Z" fill="#F0F1F1" fill-opacity="0.15"/>
<path d="M144.688 346.687C248.955 347.378 333.019 450.211 332.449 576.369L143.655 575.117L144.688 346.687Z" fill="#FFC700" fill-opacity="0.15"/>
<path d="M143.138 689.534L237.535 690.16C289.668 690.505 332.163 639.649 332.448 576.57L238.051 575.945C185.918 575.599 143.423 626.455 143.138 689.534Z" fill="#FFC700" fill-opacity="0.15"/>
<path d="M143.138 689.534L237.535 690.16C289.668 690.505 331.7 741.921 331.415 805L237.018 804.374C184.885 804.029 142.853 752.613 143.138 689.534Z" fill="#FF743C" fill-opacity="0.15"/>
<path d="M145.205 232.271C144.92 295.349 186.952 346.766 239.085 347.111C291.219 347.457 333.713 296.601 333.999 233.522C334.284 170.443 292.251 119.027 240.118 118.681L145.721 118.056L145.205 232.271Z" fill="#FF743C" fill-opacity="0.15"/>
<path d="M191.181 59.0779C191.033 91.704 212.774 118.298 239.741 118.477C266.706 118.656 288.685 92.3512 288.833 59.7251C288.98 27.0968 267.24 0.502351 240.275 0.323627L191.448 0L191.181 59.0779Z" fill="#FFC700" fill-opacity="0.15"/>
<path d="M190.603 575.63C190.033 701.787 105.044 803.5 0.776703 802.809L1.80905 574.379L190.603 575.63Z" fill="#FF743C" fill-opacity="0.15"/>
<path d="M191.636 346.998C191.066 473.158 106.077 574.868 1.81024 574.177L2.84262 345.747L191.636 346.998Z" fill="#6ED47C" fill-opacity="0.15"/>
<path d="M146.819 119.609C146.528 183.994 103.156 235.901 49.942 235.548L50.4689 118.97L146.819 119.609Z" fill="#D5E155" fill-opacity="0.15"/>
<path d="M-2.96762 449.073C101.299 449.764 185.364 552.597 184.794 678.754L-4 677.503L-2.96762 449.073Z" fill="#F0F1F1" fill-opacity="0.15"/>
<g clip-path="url(#clip0_13_2)">
<path d="M719.5 1698.29C719.5 1821.52 630.46 1921.42 520.625 1921.42V1698.29H719.5Z" fill="#FF743C" fill-opacity="0.15"/>
<path d="M621.641 2033.7C511.806 2033.7 422.766 1933.8 422.766 1810.57H621.641V2033.7Z" fill="#FF743C" fill-opacity="0.15"/>
<path d="M1120.41 1810.76C1120.41 1933.99 1031.37 2033.89 921.532 2033.89V1810.76H1120.41Z" fill="#F0F1F1" fill-opacity="0.15"/>
<path d="M-76 2033.7C-76 1910.47 13.0393 1810.57 122.875 1810.57V2033.7H-76Z" fill="#FF743C" fill-opacity="0.15"/>
<path d="M1316.12 1251.26C1206.29 1251.26 1117.25 1151.36 1117.25 1028.13H1316.12V1251.26Z" fill="#FFC700" fill-opacity="0.15"/>
<path d="M1316.12 1698.29C1206.29 1698.29 1117.25 1598.39 1117.25 1475.16H1316.12V1698.29Z" fill="#2D3652" fill-opacity="0.15"/>
<path d="M918.375 1252.03C1028.21 1252.03 1117.25 1351.93 1117.25 1475.16H918.375V1252.03Z" fill="#D5E155" fill-opacity="0.15"/>
<path d="M520.625 805C520.625 928.231 431.585 1028.13 321.75 1028.13V805H520.625Z" fill="#FF743C" fill-opacity="0.15"/>
<path d="M520.625 1921.42C410.788 1921.42 321.75 1821.52 321.75 1698.29H520.625V1921.42Z" fill="#2D3652" fill-opacity="0.15"/>
<path d="M520.625 1812.17C464.57 1812.17 419.13 1761.18 419.13 1698.29H520.625V1812.17Z" fill="#6ED47C" fill-opacity="0.15"/>
<path d="M224.37 1978.79C168.316 1978.79 122.875 1927.81 122.875 1864.92H224.37V1978.79Z" fill="#2D3652" fill-opacity="0.15"/>
<path d="M820.516 2033.7C710.679 2033.7 621.641 1933.8 621.641 1810.57H820.516V2033.7Z" fill="#6ED47C" fill-opacity="0.15"/>
<path d="M922.01 1978.79C865.955 1978.79 820.516 1927.81 820.516 1864.92H922.01V1978.79Z" fill="#D5E155" fill-opacity="0.15"/>
<path d="M122.875 1252.03V1363.6C122.875 1425.21 78.3552 1475.16 23.4375 1475.16L23.4375 1363.6C23.4375 1301.98 67.9573 1252.03 122.875 1252.03Z" fill="#D5E155" fill-opacity="0.15"/>
<path d="M222.312 1475.16V1363.6C222.312 1301.98 177.792 1252.03 122.875 1252.03V1363.6C122.875 1425.21 167.395 1475.16 222.312 1475.16Z" fill="#2D3652" fill-opacity="0.15"/>
<path d="M1313.14 896.484H1213.7C1158.79 896.484 1114.27 946.434 1114.27 1008.05H1213.7C1268.62 1008.05 1313.14 958.099 1313.14 896.484Z" fill="#2D3652" fill-opacity="0.15"/>
<path d="M23.4375 1363.6V1475.16C23.4375 1536.78 -21.0823 1586.73 -76 1586.73V1475.16C-76 1413.55 -31.4802 1363.6 23.4375 1363.6Z" fill="#6ED47C" fill-opacity="0.15"/>
<path d="M1512.02 917.681H1412.58C1357.66 917.681 1313.14 967.631 1313.14 1029.25H1412.58C1467.5 1029.25 1512.02 979.297 1512.02 917.681Z" fill="#FFC700" fill-opacity="0.15"/>
<path d="M1512.02 917.681H1412.58C1357.66 917.681 1313.14 867.732 1313.14 806.116H1412.58C1467.5 806.116 1512.02 856.065 1512.02 917.681Z" fill="#FF743C" fill-opacity="0.15"/>
<path d="M520.625 1362.83H620.062C674.98 1362.83 719.5 1312.88 719.5 1251.26H620.062C565.145 1251.26 520.625 1301.21 520.625 1362.83Z" fill="#2D3652" fill-opacity="0.15"/>
<path d="M421.188 1474.39H520.625C575.542 1474.39 620.062 1424.44 620.062 1362.83H520.625C465.708 1362.83 421.188 1412.78 421.188 1474.39Z" fill="#6ED47C" fill-opacity="0.15"/>
<path d="M520.625 805V1028.13C520.625 1151.36 609.665 1251.26 719.5 1251.26V1028.13C719.5 904.9 630.46 805 520.625 805Z" fill="#FF743C" fill-opacity="0.15"/>
<path d="M620.062 1028.9V1139.52C620.062 1201.23 664.583 1251.26 719.5 1251.26V1140.64C719.5 1078.93 674.98 1028.9 620.062 1028.9Z" fill="#2D3652" fill-opacity="0.15"/>
<path d="M-76 1252.03V1028.52C-76 905.072 13.0393 805 122.875 805V1028.52C122.875 1151.96 33.8357 1252.03 -76 1252.03Z" fill="#2D3652" fill-opacity="0.15"/>
<path d="M23.4375 1027.36L23.4375 916.743C23.4375 855.03 67.9573 805 122.875 805V915.619C122.875 977.334 78.3552 1027.36 23.4375 1027.36Z" fill="#6ED47C" fill-opacity="0.15"/>
<path d="M422.766 2144.97V1921.84C422.766 1798.61 333.725 1698.7 223.891 1698.7L223.891 1921.84C223.891 2045.07 312.931 2144.97 422.766 2144.97Z" fill="#F0F1F1" fill-opacity="0.15"/>
<path d="M222.312 1920.65V1810.04C222.312 1748.32 177.792 1698.29 122.875 1698.29L122.875 1808.91C122.875 1870.63 167.395 1920.65 222.312 1920.65Z" fill="#FFC700" fill-opacity="0.15"/>
<path d="M321.75 805V1028.13C321.75 1151.36 232.71 1251.26 122.875 1251.26V1028.13C122.875 904.9 211.915 805 321.75 805Z" fill="#F0F1F1" fill-opacity="0.15"/>
<path d="M222.312 1029.67V1140.29C222.312 1202 177.792 1252.03 122.875 1252.03V1141.41C122.875 1079.7 167.395 1029.67 222.312 1029.67Z" fill="#D5E155" fill-opacity="0.15"/>
<path d="M1117.25 1028.13H918.375C808.54 1028.13 719.5 1128.03 719.5 1251.26H918.375C1028.21 1251.26 1117.25 1151.36 1117.25 1028.13Z" fill="#2D3652" fill-opacity="0.15"/>
<path d="M918.375 1139.7H819.44C764.245 1139.7 719.5 1189.65 719.5 1251.26H818.435C873.632 1251.26 918.375 1201.31 918.375 1139.7Z" fill="#F0F1F1" fill-opacity="0.15"/>
<path d="M1117.25 1475.16H918.375C808.54 1475.16 719.5 1575.06 719.5 1698.29H918.375C1028.21 1698.29 1117.25 1598.39 1117.25 1475.16Z" fill="#F0F1F1" fill-opacity="0.15"/>
<path d="M917.689 1586.73H819.096C764.091 1586.73 719.5 1636.68 719.5 1698.29H818.094C873.1 1698.29 917.689 1648.34 917.689 1586.73Z" fill="#2D3652" fill-opacity="0.15"/>
<path d="M520.625 1475.16H321.75C211.915 1475.16 122.875 1575.06 122.875 1698.29H321.75C431.585 1698.29 520.625 1598.39 520.625 1475.16Z" fill="#F0F1F1" fill-opacity="0.15"/>
<path d="M321.064 1586.73H222.471C167.466 1586.73 122.875 1636.68 122.875 1698.29H221.469C276.475 1698.29 321.064 1648.34 321.064 1586.73Z" fill="#FF743C" fill-opacity="0.15"/>
<path d="M719.5 1698.29H918.375C1028.21 1698.29 1117.25 1798.19 1117.25 1921.42H918.375C808.54 1921.42 719.5 1821.52 719.5 1698.29Z" fill="#2D3652" fill-opacity="0.15"/>
<path d="M918.375 1809.86H1017.31C1072.5 1809.86 1117.25 1859.81 1117.25 1921.42H1018.32C963.118 1921.42 918.375 1871.47 918.375 1809.86Z" fill="#6ED47C" fill-opacity="0.15"/>
<path d="M1120.41 2144.57V1921.44C1120.41 1798.21 1209.45 1698.31 1319.28 1698.31V1921.44C1319.28 2044.67 1230.24 2144.57 1120.41 2144.57Z" fill="#6ED47C" fill-opacity="0.15"/>
<path d="M1216.69 1920.65V1810.03C1216.69 1748.32 1261.21 1698.29 1316.12 1698.29V1808.91C1316.12 1870.63 1271.6 1920.65 1216.69 1920.65Z" fill="#2D3652" fill-opacity="0.15"/>
<path d="M1058.27 1697.52C1058.27 1660.55 1084.98 1630.58 1117.94 1630.58C1150.89 1630.58 1177.6 1660.55 1177.6 1697.52C1177.6 1734.49 1150.89 1764.46 1117.94 1764.46C1084.98 1764.46 1058.27 1734.49 1058.27 1697.52Z" fill="#FF743C" fill-opacity="0.15"/>
<path d="M1088.45 1697.91C1088.45 1679.42 1101.8 1664.44 1118.28 1664.44C1134.75 1664.44 1148.11 1679.42 1148.11 1697.91C1148.11 1716.39 1134.75 1731.38 1118.28 1731.38C1101.8 1731.38 1088.45 1716.39 1088.45 1697.91Z" fill="#FFC700" fill-opacity="0.15"/>
<path d="M639.264 1415.53C639.264 1397.05 652.621 1382.06 669.095 1382.06C685.57 1382.06 698.927 1397.05 698.927 1415.53C698.927 1434.02 685.57 1449 669.095 1449C652.621 1449 639.264 1434.02 639.264 1415.53Z" fill="#FF743C" fill-opacity="0.15"/>
<path d="M440.389 1307.81C440.389 1289.33 453.746 1274.34 470.22 1274.34C486.695 1274.34 500.052 1289.33 500.052 1307.81C500.052 1326.3 486.695 1341.28 470.22 1341.28C453.746 1341.28 440.389 1326.3 440.389 1307.81Z" fill="#6ED47C" fill-opacity="0.15"/>
<path d="M1139.2 862.322C1139.2 843.838 1152.55 828.852 1169.03 828.852C1185.5 828.852 1198.86 843.838 1198.86 862.322C1198.86 880.806 1185.5 895.791 1169.03 895.791C1152.55 895.791 1139.2 880.806 1139.2 862.322Z" fill="#6ED47C" fill-opacity="0.15"/>
<path d="M1235.2 862.322C1235.2 843.838 1248.56 828.852 1265.03 828.852C1281.51 828.852 1294.87 843.838 1294.87 862.322C1294.87 880.806 1281.51 895.791 1265.03 895.791C1248.56 895.791 1235.2 880.806 1235.2 862.322Z" fill="#D5E155" fill-opacity="0.15"/>
<path d="M97.5009 1636.36C97.5009 1654.84 84.145 1669.82 67.6696 1669.82C51.1942 1669.82 37.8384 1654.84 37.8384 1636.36C37.8384 1617.87 51.1942 1602.89 67.6696 1602.89C84.145 1602.89 97.5009 1617.87 97.5009 1636.36Z" fill="#FF743C" fill-opacity="0.15"/>
<path d="M3.54971 1636.36C3.54971 1654.84 -9.80614 1669.82 -26.2815 1669.82C-42.7569 1669.82 -56.1128 1654.84 -56.1128 1636.36C-56.1128 1617.87 -42.7569 1602.89 -26.2815 1602.89C-9.80614 1602.89 3.54971 1617.87 3.54971 1636.36Z" fill="#2D3652" fill-opacity="0.15"/>
<path d="M97.5009 1530.95C97.5009 1549.43 84.145 1564.41 67.6696 1564.41C51.1942 1564.41 37.8384 1549.43 37.8384 1530.95C37.8384 1512.46 51.1942 1497.48 67.6696 1497.48C84.145 1497.48 97.5009 1512.46 97.5009 1530.95Z" fill="#6ED47C" fill-opacity="0.15"/>
<path d="M1079.53 1239.34C1079.53 1220.85 1092.89 1205.87 1109.36 1205.87C1125.84 1205.87 1139.19 1220.85 1139.19 1239.34C1139.19 1257.82 1125.84 1272.81 1109.36 1272.81C1092.89 1272.81 1079.53 1257.82 1079.53 1239.34Z" fill="#FF743C" fill-opacity="0.15"/>
<path d="M692.755 1864.49C692.755 1847.91 704.729 1834.48 719.5 1834.48C734.271 1834.48 746.245 1847.91 746.245 1864.49C746.245 1881.06 734.271 1894.49 719.5 1894.49C704.729 1894.49 692.755 1881.06 692.755 1864.49Z" fill="#FF743C" fill-opacity="0.15"/>
<path d="M-52.6836 1307.43C-52.6836 1290.86 -40.7092 1277.42 -25.9383 1277.42C-11.1674 1277.42 0.806927 1290.86 0.806927 1307.43C0.806927 1324 -11.1674 1337.44 -25.9383 1337.44C-40.7092 1337.44 -52.6836 1324 -52.6836 1307.43Z" fill="#FF743C" fill-opacity="0.15"/>
<path d="M719.5 1362.83C719.5 1301.21 764.02 1251.26 818.938 1251.26C873.855 1251.26 918.375 1301.21 918.375 1362.83C918.375 1424.44 873.855 1474.39 818.938 1474.39H719.5V1362.83Z" fill="#FF743C" fill-opacity="0.15"/>
<path d="M719.5 1417.45C719.5 1385.58 742.527 1359.75 770.934 1359.75C799.339 1359.75 822.366 1385.58 822.366 1417.45C822.366 1449.33 799.339 1475.16 770.934 1475.16H719.5V1417.45Z" fill="#FFC700" fill-opacity="0.15"/>
<path d="M1316.12 1362.83C1316.12 1301.21 1271.6 1251.26 1216.69 1251.26C1161.77 1251.26 1117.25 1301.21 1117.25 1362.83C1117.25 1424.44 1161.77 1474.39 1216.69 1474.39H1316.12V1362.83Z" fill="#FF743C" fill-opacity="0.15"/>
<path d="M1316.12 1416.69C1316.12 1384.82 1293.1 1358.98 1264.69 1358.98C1236.29 1358.98 1213.26 1384.82 1213.26 1416.69C1213.26 1448.56 1236.29 1474.39 1264.69 1474.39H1316.12V1416.69Z" fill="#FFC700" fill-opacity="0.15"/>
<path d="M1117.25 916.565C1117.25 854.95 1072.73 805 1017.81 805C962.895 805 918.375 854.95 918.375 916.565C918.375 978.181 962.895 1028.13 1017.81 1028.13H1117.25V916.565Z" fill="#D5E155" fill-opacity="0.15"/>
<path d="M1117.25 970.424C1117.25 938.555 1094.22 912.719 1065.82 912.719C1037.41 912.719 1014.38 938.555 1014.38 970.424C1014.38 1002.3 1037.41 1028.13 1065.82 1028.13H1117.25V970.424Z" fill="#FF743C" fill-opacity="0.15"/>
<path d="M719.5 916.565C719.5 978.181 764.02 1028.13 818.938 1028.13C873.855 1028.13 918.375 978.181 918.375 916.565C918.375 854.95 873.855 805 818.938 805H719.5V916.565Z" fill="#6ED47C" fill-opacity="0.15"/>
<path d="M719.5 862.707C719.5 894.577 742.527 920.413 770.934 920.413C799.339 920.413 822.366 894.577 822.366 862.707C822.366 830.836 799.339 805 770.934 805H719.5V862.707Z" fill="#2D3652" fill-opacity="0.15"/>
<path d="M321.75 1139.7C321.75 1078.08 366.27 1028.13 421.188 1028.13C476.105 1028.13 520.625 1078.08 520.625 1139.7C520.625 1201.31 476.105 1251.26 421.188 1251.26C366.27 1251.26 321.75 1201.31 321.75 1139.7Z" fill="#FFC700" fill-opacity="0.15"/>
<path d="M366.326 1140.08C366.326 1105.87 391.043 1078.14 421.531 1078.14C452.019 1078.14 476.736 1105.87 476.736 1140.08C476.736 1174.29 452.019 1202.02 421.531 1202.02C391.043 1202.02 366.326 1174.29 366.326 1140.08Z" fill="#2D3652" fill-opacity="0.15"/>
<path d="M918.375 2032.99C918.375 1971.37 962.895 1921.42 1017.81 1921.42C1072.73 1921.42 1117.25 1971.37 1117.25 2032.99C1117.25 2094.6 1072.73 2144.55 1017.81 2144.55C962.895 2144.55 918.375 2094.6 918.375 2032.99Z" fill="#FF743C" fill-opacity="0.15"/>
<path d="M1319.28 1922.13C1319.28 1887.93 1344 1860.19 1374.49 1860.19C1404.97 1860.19 1429.69 1887.93 1429.69 1922.13C1429.69 1956.34 1404.97 1984.07 1374.49 1984.07C1344 1984.07 1319.28 1956.34 1319.28 1922.13Z" fill="#2D3652" fill-opacity="0.15"/>
<path d="M719.5 1586.73C719.5 1648.34 675.134 1698.29 620.406 1698.29C565.678 1698.29 521.311 1648.34 521.311 1586.73C521.311 1525.11 565.678 1475.16 620.406 1475.16H719.5V1586.73Z" fill="#D5E155" fill-opacity="0.15"/>
<path d="M321.75 1475.16C376.667 1475.16 421.188 1425.21 421.188 1363.6C421.188 1301.98 376.667 1252.03 321.75 1252.03C266.833 1252.03 222.312 1301.98 222.312 1363.6V1475.16H321.75Z" fill="#FF743C" fill-opacity="0.15"/>
<path d="M1315.44 1251.26C1315.44 1128.03 1404.48 1028.13 1514.31 1028.13V1251.26H1315.44Z" fill="#FF743C" fill-opacity="0.15"/>
<path d="M1514.31 1697.52C1404.48 1697.52 1315.44 1597.62 1315.44 1474.39H1514.31V1697.52Z" fill="#F0F1F1" fill-opacity="0.15"/>
<path d="M1315.44 1474.39C1315.44 1351.16 1404.48 1251.26 1514.31 1251.26V1474.39H1315.44Z" fill="#6ED47C" fill-opacity="0.15"/>
<path d="M1412.82 1474.39C1412.82 1411.5 1458.26 1360.52 1514.31 1360.52V1474.39H1412.82Z" fill="#D5E155" fill-opacity="0.15"/>
<path d="M1316.12 1979.48C1316.12 2011.35 1339.15 2037.18 1367.56 2037.18C1395.96 2037.18 1418.99 2011.35 1418.99 1979.48C1418.99 1947.61 1395.96 1921.77 1367.56 1921.77H1316.12V1979.48Z" fill="#FFC700" fill-opacity="0.15"/>
<path d="M1414.88 1697.52C1469.79 1697.52 1514.31 1747.47 1514.31 1809.09C1514.31 1870.7 1469.79 1920.65 1414.88 1920.65C1359.96 1920.65 1315.44 1870.7 1315.44 1809.09C1315.44 1747.47 1359.96 1697.52 1414.88 1697.52Z" fill="#FF743C" fill-opacity="0.15"/>
<path d="M1415.91 1747.54C1446.39 1747.54 1471.11 1775.27 1471.11 1809.47C1471.11 1843.68 1446.39 1871.41 1415.91 1871.41C1385.42 1871.41 1360.7 1843.68 1360.7 1809.47C1360.7 1775.27 1385.42 1747.54 1415.91 1747.54Z" fill="#2D3652" fill-opacity="0.15"/>
</g>
<defs>
<clipPath id="clip0_13_2">
<rect width="1591" height="1215" fill="white" transform="translate(-76 805)"/>
</clipPath>
</defs>
</svg>
